<?xml version="1.0" standalone="no"?>
<!DOCTYPE svg PUBLIC "-//W3C//DTD SVG 20010904//EN"
 "http://www.w3.org/TR/2001/REC-SVG-20010904/DTD/svg10.dtd">
<svg version="1.0" xmlns="http://www.w3.org/2000/svg"
 width="350.000000pt" height="350.000000pt" viewBox="0 0 350.000000 350.000000"
 preserveAspectRatio="xMidYMid meet">
<metadata>
Created by potrace 1.11, written by Peter Selinger 2001-2013
</metadata>
<g transform="translate(0.000000,350.000000) scale(0.100000,-0.100000)"
fill="#000000" stroke="none">
<path d="M0 1750 l0 -1750 1750 0 1750 0 0 1750 0 1750 -1750 0 -1750 0 0
-1750z m1160 1160 l0 -570 -570 0 -570 0 0 570 0 570 570 0 570 0 0 -570z
m1160 0 l0 -570 -570 0 -570 0 0 570 0 570 570 0 570 0 0 -570z m1160 0 l0
-570 -570 0 -570 0 0 570 0 570 570 0 570 0 0 -570z m-2320 -1160 l0 -570
-570 0 -570 0 0 570 0 570 570 0 570 0 0 -570z m1160 0 l0 -570 -570 0 -570 0
0 570 0 570 570 0 570 0 0 -570z m1160 0 l0 -570 -570 0 -570 0 0 570 0 570
570 0 570 0 0 -570z m-2320 -1160 l0 -570 -570 0 -570 0 0 570 0 570 570 0
570 0 0 -570z m1160 0 l0 -570 -570 0 -570 0 0 570 0 570 570 0 570 0 0 -570z
m1160 0 l0 -570 -570 0 -570 0 0 570 0 570 570 0 570 0 0 -570z"/>
<path d="M1642 3394 c-227 -61 -374 -251 -374 -484 0 -188 97 -351 259 -437
270 -144 591 -23 708 267 12 29 19 81 22 150 6 116 -11 187 -65 279 -106 181
-348 280 -550 225z"/>
<path d="M2760 2227 c-130 -47 -226 -130 -285 -250 -91 -185 -68 -377 63 -544
151 -190 452 -232 662 -91 157 104 243 304 212 491 -23 136 -111 272 -223 343
-81 51 -164 74 -269 74 -74 0 -110 -6 -160 -23z"/>
<path d="M495 1090 c-189 -39 -333 -172 -389 -359 -18 -62 -21 -184 -5 -251
29 -125 130 -256 245 -317 203 -108 433 -75 592 83 244 243 175 647 -137 804
-83 42 -213 59 -306 40z"/>
<path d="M1644 1086 c-254 -58 -424 -307 -384 -561 45 -291 334 -483 615 -410
315 82 467 425 318 719 -31 60 -109 145 -172 186 -105 67 -256 93 -377 66z"/>
<path d="M2760 1067 c-125 -45 -219 -125 -277 -234 -82 -153 -83 -315 -4 -471
84 -165 249 -264 441 -264 188 0 351 97 437 259 143 267 24 590 -258 704 -41
17 -81 23 -164 26 -97 3 -118 1 -175 -20z"/>
</g>
</svg>
